<svg width="25" height="29" viewBox="0 0 25 29" fill="none" xmlns="http://www.w3.org/2000/svg">
<g clip-path="url(#clip0_19_508)">
<path fill-rule="evenodd" clip-rule="evenodd" d="M14.9096 10.4742C15.7662 10.0471 16.856 9.41837 17.9472 8.557C18.1772 9.03477 18.2024 9.45169 18.0839 9.78835C17.9999 10.0256 17.8416 10.232 17.6335 10.3961C17.4081 10.5736 17.1266 10.7027 16.8154 10.7725C16.225 10.9055 15.5356 10.8279 14.9096 10.4742ZM15.0581 14.8502L16.1919 15.5051C13.8769 16.8026 13.2476 19.2119 12.5 21.5586C11.7525 19.2119 11.123 16.8026 8.80807 15.5051L9.94188 14.8502C10.0516 14.8087 10.1453 14.7336 10.2097 14.6356C10.2741 14.5376 10.3058 14.4218 10.3003 14.3047C10.1964 12.1069 10.7898 11.1351 11.5902 10.5248C11.8773 10.3063 12.1907 10.1965 12.5 10.1965C12.8092 10.1965 13.1226 10.3063 13.4098 10.5248C14.2102 11.1351 14.8036 12.1069 14.6997 14.3047C14.6942 14.4218 14.7259 14.5376 14.7903 14.6356C14.8547 14.7336 14.9485 14.8087 15.0581 14.8502ZM12.5 0.5C13.8105 0.535187 15.1244 0.789613 16.2647 1.28456C17.0543 1.62775 17.791 2.08107 18.4582 2.62315C18.7595 2.86787 19.0075 3.10428 19.2808 3.37644C20.0179 3.40192 21.095 2.58311 21.5951 1.81693C20.7345 4.6384 16.8072 7.97031 14.0883 9.24524C14.0872 9.24477 14.0864 9.24412 14.0856 9.24356C13.5977 8.87097 13.0489 8.68468 12.5 8.68468C11.9511 8.68468 11.4024 8.87097 10.9144 9.24356C10.9136 9.24403 10.9128 9.24487 10.9117 9.24524C8.19272 7.97031 4.26553 4.6384 3.40491 1.81693C3.90489 2.58311 4.98205 3.40192 5.71911 3.37644C5.99248 3.10437 6.24056 2.86787 6.54175 2.62315C7.20889 2.08107 7.94567 1.62775 8.73527 1.28456C9.87561 0.789613 11.1895 0.535187 12.5 0.5ZM10.0903 10.4742C9.23385 10.0471 8.14391 9.41837 7.05284 8.557C6.82277 9.03477 6.79757 9.45169 6.91601 9.78835C7.00011 10.0256 7.1584 10.232 7.36644 10.3961C7.59193 10.5736 7.87343 10.7027 8.1846 10.7725C8.77503 10.9055 9.46429 10.8279 10.0903 10.4742Z" fill="#FFF8E0"/>
<path fill-rule="evenodd" clip-rule="evenodd" d="M19.1422 7.50139C19.7429 6.8952 20.2722 6.22422 20.6978 5.62549L20.914 6.03233C21.6099 7.42458 21.9715 8.81123 21.9715 10.3718L21.97 12.8481L21.983 14.1318C22.0334 17.2833 22.7153 20.4718 24.26 23.3898L21.0281 20.7838L18.7414 24.4946L16.339 22.233L12.5 28.4629L8.661 22.2331L6.2587 24.4947L3.97194 20.7839L0.73999 23.3899C2.28466 20.4719 2.96655 17.2834 3.01704 14.1319L3.03011 12.8482L3.02862 10.3719C3.02862 8.81124 3.3901 7.42458 4.08618 6.03242L4.30224 5.62558C4.72784 6.22431 5.25704 6.89519 5.85783 7.50149L5.67023 7.89116C5.30576 8.648 5.18508 9.49425 5.469 10.2991C5.65203 10.8174 5.98607 11.262 6.41671 11.6013C6.83484 11.9309 7.3297 12.153 7.84779 12.2697C8.18528 12.3457 8.52912 12.3769 8.87072 12.3663C8.79102 12.8181 8.7562 13.2868 8.75396 13.7642L5.70532 15.5251L8.05788 16.8438C8.24592 16.9492 8.42492 17.07 8.59306 17.2049C10.5326 18.9463 11.6987 24.098 12.5001 26.6144C13.3015 24.098 14.4676 18.9463 16.4072 17.2049C16.5753 17.07 16.7543 16.9492 16.9424 16.8438L19.2949 15.5251L16.2462 13.7642C16.244 13.2868 16.2091 12.8181 16.1294 12.3663C16.471 12.3769 16.8149 12.3457 17.1524 12.2697C17.6705 12.153 18.1654 11.9309 18.5835 11.6013C19.014 11.262 19.3481 10.8174 19.5311 10.2991C19.8151 9.49425 19.6943 8.64809 19.3299 7.89116L19.1423 7.50149L19.1422 7.50139Z" fill="#FFF8E0"/>
</g>
<defs>
<clipPath id="clip0_19_508">
<rect width="23.52" height="28" fill="white" transform="translate(0.73999 0.5)"/>
</clipPath>
</defs>
</svg>
