<?xml version="1.0" standalone="no"?>
<!DOCTYPE svg PUBLIC "-//W3C//DTD SVG 20010904//EN"
 "http://www.w3.org/TR/2001/REC-SVG-20010904/DTD/svg10.dtd">
<svg version="1.0" xmlns="http://www.w3.org/2000/svg"
 width="1920.000000pt" height="670.000000pt" viewBox="0 0 1920.000000 670.000000"
 preserveAspectRatio="xMidYMid meet">

<g transform="translate(0.000000,670.000000) scale(0.100000,-0.100000)"
fill="#000000" stroke="none">
<path d="M5396 1024 c-10 -25 -7 -167 4 -184 7 -12 30 -15 100 -15 70 0 93 3
100 15 11 17 14 159 4 184 -9 24 -199 24 -208 0z"/>
<path d="M8216 1024 c-10 -25 -7 -167 4 -184 7 -12 30 -15 100 -15 70 0 93 3
100 15 11 17 14 159 4 184 -9 24 -199 24 -208 0z"/>
<path d="M11176 1024 c-10 -25 -7 -167 4 -184 7 -12 30 -15 100 -15 70 0 93 3
100 15 11 17 14 159 4 184 -9 24 -199 24 -208 0z"/>
<path d="M14236 1024 c-10 -25 -7 -167 4 -184 7 -12 30 -15 100 -15 70 0 93 3
100 15 11 17 14 159 4 184 -9 24 -199 24 -208 0z"/>
</g>
</svg>
