<svg width="29" height="25" viewBox="0 0 29 25" fill="none" xmlns="http://www.w3.org/2000/svg">
<path fill-rule="evenodd" clip-rule="evenodd" d="M22.1609 24.235C22.5473 24.5086 23.0453 24.577 23.4893 24.409C23.9333 24.2398 24.2597 23.8606 24.3581 23.401C25.4009 18.5002 27.9305 6.09578 28.8797 1.63778C28.9517 1.30178 28.8317 0.952578 28.5677 0.728178C28.3037 0.503778 27.9377 0.438978 27.6113 0.560178C22.5797 2.42258 7.08409 8.23659 0.750488 10.5802C0.348487 10.729 0.0868868 11.1154 0.100087 11.539C0.114487 11.9638 0.400087 12.3322 0.811688 12.4558C3.65209 13.3054 7.38049 14.4874 7.38049 14.4874C7.38049 14.4874 9.1229 19.7494 10.0313 22.4254C10.1453 22.7614 10.4081 23.0254 10.7549 23.1166C11.1005 23.2066 11.4701 23.1118 11.7281 22.8682C13.1873 21.4906 15.4433 19.3606 15.4433 19.3606C15.4433 19.3606 19.7297 22.5034 22.1609 24.235ZM8.9489 13.8226L10.9637 20.4682L11.4113 16.2598C11.4113 16.2598 19.1957 9.23859 23.6333 5.23658C23.7629 5.11898 23.7809 4.92218 23.6729 4.78418C23.5661 4.64618 23.3693 4.61378 23.2217 4.70738C18.0785 7.99179 8.9489 13.8226 8.9489 13.8226Z" fill="#FFF8E0"/>
</svg>
